<svg xmlns="http://www.w3.org/2000/svg" viewBox="0 0 80 78.36"><path d="M14.69,19.47a10.71,10.71,0,0,1,1.53-5.7,26.33,26.33,0,0,1,2.08-3c.23-.29.47-.59.72-.88s.31-.34.47-.5S20.77,8,20.81,8s.48,2.93,2.15,3c2.81.16,5.27-1.42,7.73-2.44A22.34,22.34,0,0,0,34.91,6.2,3.4,3.4,0,0,0,36.4,4.62,4.86,4.86,0,0,0,35.62.46,26.21,26.21,0,0,1,39.5,0c7.79-.44,8.15,11.6,1.19,12.55a20.94,20.94,0,0,0-4.58,1.16,30.8,30.8,0,0,0-5.6,2.48c-1.81,1-3.49,2.32-5.23,3.49A15.17,15.17,0,0,1,20,22.18a7.71,7.71,0,0,1-2.75.09,2.85,2.85,0,0,1-2.54-2.79Z"/><path d="M22.46,6.56h0c2.33-1.82,4.9-3.8,7.91-4.28,3.67-.6,4,4.26,2.73,7.22-2,4.74-2.08,9.57-1.48,14.61.24,2.05.74,4.07.88,6.14a10.56,10.56,0,0,1-.16,4.19c-.39,1.1-1.44,2.59-2.67,2.78a9.93,9.93,0,0,1-2.31,0c-3-.27-3.87-3.17-3.86-5.73a38,38,0,0,1,1-6.46,43.21,43.21,0,0,0,.65-7.86,30.57,30.57,0,0,0-.62-7.76c-.27-1-.78-2.66-2-2.82Z"/><path d="M29.72,16s4.9-1.88,7.76,1.63,4.46,9.06-.15,10.44c-4.92,1.48-7-3.12-5.64-6.18,1.17-2.65.9-6-2-5.89Z"/><path d="M48.45,2.82c1.68-1,3.92-.62,5.66.23,3.82,1.86,7.42,7.66,3.33,11-3,2.42-7.6,3.41-11.3,3.9s-8.49.54-11.17-2.47c2.22-.16,4.33-.13,6.31-1.21a15.58,15.58,0,0,0,3.8-2.54c2.73-2.73.12-5.24,2.25-7.91a4.21,4.21,0,0,1,1.11-1Z"/><path d="M40.2,15.28S50,14.34,51,24.56c.51,5,.65,11.29-6.36,11.36a4.33,4.33,0,0,1-4.26-2.28,9.63,9.63,0,0,1,.12-8.16c1.79-4.35-.34-10.21-.34-10.21Z"/><path d="M13,37.72a15.65,15.65,0,0,0,.89,2.58,25.32,25.32,0,0,0,2,3.8c1.17,1.79,2.75,4.35,4.58,5.25a1.32,1.32,0,0,0,1.29,0c2.58-1.56,6.71-2.13,9.74-2.29,5.82-.31,11.54-.18,17.35-.21a28.59,28.59,0,0,1,7.49.65c2.41.57,5.22,1.5,7.42-.18s4.05-5.68,4.6-8.43C68.89,36,65.18,36.6,63.46,37A71.12,71.12,0,0,1,51.2,38.06c-4.09.15-8.18,0-12.27.07-3.45,0-6.9.11-10.36.11-5.06,0-9.89-.1-14.77-1.64l-.35-.18a.47.47,0,0,0-.68.54c.06.23.13.5.19.75Z"/><path d="M35.26,36.94a9.51,9.51,0,0,1,2.08-1.27,7.71,7.71,0,0,1,4.56-.55c1.43.31,3.11.92,3.38,2.56.29,1.86-.45,3.8-.43,5.67A23.69,23.69,0,0,0,45,47.12c.23,1.31.5,2.62.64,3.94.22,2.06.48,5-1.5,6.45-1.39,1-4.49.79-6,.33-1.95-.59-2.89-2.77-2.91-4.59A33.1,33.1,0,0,1,36,47.47a20,20,0,0,0,.36-3.54c0-1.42.2-7.38-1.08-7Z"/><path d="M34.8,47.49c-3.62,3.45-8-.24-11.35,1.93-2.82,1.82,1,4.27,3.21,5.33,1.9.91,5.1,2.58,6.47.58a11.82,11.82,0,0,0,1.68-7.84Z"/><path d="M46.31,47.49c3.63,3.45,8.28-.26,11.65,1.92,2.83,1.83-1,4.27-3.21,5.33-1.9.91-5.11,2.59-6.47.59a11.93,11.93,0,0,1-2-7.84Z"/><path d="M22.65,24.14A32.28,32.28,0,0,1,25,20c0-.05,0-.09,0-.11-.19-.34-.53.32-.94.74-2.53,2.57-4.29,4.7-7.3,3.79a4.07,4.07,0,0,1-2-1.43,7.14,7.14,0,0,1-1.12-2,22.14,22.14,0,0,1-1.27,2.75,11.64,11.64,0,0,0-.6,2.61,9.27,9.27,0,0,0,.81,5.77A6,6,0,0,0,18.69,35c2.41-.31,4.58-2,4.36-4.63-.12-1.48-1.31-2.74-1.1-4.38a6.36,6.36,0,0,1,.7-1.86Z"/><path d="M58.75,15.54c-.84.11-1.69.26-2.55.35a24.68,24.68,0,0,1-2.58-.2,5.27,5.27,0,0,0-3.79,1.82c-1.13,1.63-1.06,4.68.64,5.82a6,6,0,0,0,2.64,1.07A7.86,7.86,0,0,0,57.46,24c4.57-1.94,7.95,5.54.9,5.78a5.8,5.8,0,0,1-3.77-1.53c-.32-.32-.57-.78-.85-1.12A3.8,3.8,0,0,1,53,24.72c-1.64,1.26-2,3-1.56,5.73.52,3.66,4.37,6.15,7.79,6.07A10.61,10.61,0,0,0,69.7,25.76a12.33,12.33,0,0,0-2.53-7.19A9,9,0,0,0,58.75,15.54Z"/><path d="M4,63.72c0,.17,0,.28-.09.31a1.4,1.4,0,0,1-.56.06H2.7c0,.71,0,1.76,0,3.19s0,2.48,0,3.19c-.27,0-.64,0-1.1.08,0-1,0-2.47,0-4.53v-.51a3.25,3.25,0,0,0-.13-1.26c-.07-.08-.27-.13-.6-.13H.48A.79.79,0,0,1,.08,64S0,63.9,0,63.74s0-.41.1-.46a7.79,7.79,0,0,1,1.68-.09,11.43,11.43,0,0,1,1.93.08.42.42,0,0,1,.29.45Z"/><path d="M7.87,63.28a2.31,2.31,0,0,1,1.28,0,1.59,1.59,0,0,1,1,.59,6.87,6.87,0,0,1,.48,2.78,6.92,6.92,0,0,1-.19,2.79,1.9,1.9,0,0,1-2.37,1,1.69,1.69,0,0,1-1.18-1.07,9.24,9.24,0,0,1-.31-2.9,7,7,0,0,1,.25-2.26,1.65,1.65,0,0,1,1.06-.88Zm1.35,1.14a.89.89,0,0,0-.61-.29.69.69,0,0,0-.68.21,1,1,0,0,0-.22.59c0,.27,0,.89,0,1.89s0,1.63,0,1.88a.68.68,0,0,0,.2.49A.94.94,0,0,0,9,69.2a.53.53,0,0,0,.28-.27,3.84,3.84,0,0,0,.13-.66,16.3,16.3,0,0,0,0-2.23,4.6,4.6,0,0,0-.22-1.61Z"/><path d="M16.55,65.82H16L16,65.14a2.15,2.15,0,0,0-.17-.74.73.73,0,0,0-.47-.25.61.61,0,0,0-.6.16.81.81,0,0,0-.24.45A8.37,8.37,0,0,0,14.38,66q-.2,3.48.9,3.48c.46,0,.69-.42.69-1.25v-.68h1.21c0,.07,0,.3-.07.68a8.67,8.67,0,0,1-.13.9,1.64,1.64,0,0,1-.14.49,1.39,1.39,0,0,1-.7.53,2.7,2.7,0,0,1-1.06.23,1.6,1.6,0,0,1-.61-.08A1.33,1.33,0,0,1,14,70a1.93,1.93,0,0,1-.61-1.06,12.67,12.67,0,0,1-.15-2.41c0-.84,0-1.42,0-1.72a2.29,2.29,0,0,1,.19-.76,1.62,1.62,0,0,1,1.05-.9,2.63,2.63,0,0,1,.95,0,2.23,2.23,0,0,1,.86.24,1.79,1.79,0,0,1,.6.81,2.44,2.44,0,0,1,.22,1.11.83.83,0,0,1-.1.47.83.83,0,0,1-.47.08Z"/><path d="M20.88,63.28a21.55,21.55,0,0,1,.09,3h1.51a17.65,17.65,0,0,0,.16-3h1.15c0,2,0,4.33-.06,7l-.53,0q-.46,0-.54-.09a4.32,4.32,0,0,1-.09-1c0-1.19-.05-1.9-.07-2.14-.33,0-.84,0-1.55,0v3.2h-.59a1.28,1.28,0,0,1-.29,0,.38.38,0,0,1-.22-.07.15.15,0,0,1-.08-.14s0-1.08,0-3.24,0-3.25,0-3.26,0-.25.09-.29a.88.88,0,0,1,.41-.1,1,1,0,0,1,.58,0Z"/><path d="M27.54,70.27H26.39q0-6.63.1-7.14a2.57,2.57,0,0,1,1,0c0,.79,0,2,0,3.57S27.54,69.48,27.54,70.27Z"/><path d="M33.61,65.5a.84.84,0,0,1-.46-.07.66.66,0,0,1-.07-.38,1,1,0,0,0-.33-.77.88.88,0,0,0-.47-.3.86.86,0,0,0-.78.7c0,.21-.06.77-.07,1.7a13.6,13.6,0,0,0,.09,2.34c.08.42.24.66.49.73a.68.68,0,0,0,.76-.26,1.69,1.69,0,0,0,.3-1.08,1.37,1.37,0,0,0,0-.47c0-.06-.16-.09-.35-.11a.74.74,0,0,1-.36-.1c-.07-.05-.1-.17-.11-.35l-.05-.42h2.08V70.4q-.73,0-.87-.21c0-.08-.07-.13-.1-.14a.11.11,0,0,0-.11,0,.8.8,0,0,0-.22.14,1.39,1.39,0,0,1-1.35.12,2,2,0,0,1-1.15-1,6.93,6.93,0,0,1-.31-2.08,9.07,9.07,0,0,1,.1-2.33,3.31,3.31,0,0,1,.49-1.11,1.5,1.5,0,0,1,.72-.59,2.28,2.28,0,0,1,1.8.13,1.77,1.77,0,0,1,.84,1.45l.09.73Z"/><path d="M38,70.27H36.83q0-6.63.09-7.14a2.65,2.65,0,0,1,1,0c0,.79,0,2,0,3.57S38,69.48,38,70.27Z"/><path d="M45.79,70.27a.36.36,0,0,1-.36-.17A7.55,7.55,0,0,1,45.15,69c-.1-.43-.24-1-.4-1.61s-.28-1-.33-1.19l-.07,4.07-1.09-.08c.05-3.72.13-6,.22-7h1.23q.18.95.54,2.61c.25,1.1.41,1.77.49,2s.1,0,.17-.17.21-.81.42-1.74c.33-1.51.53-2.36.61-2.53a.36.36,0,0,1,.17-.24,1,1,0,0,1,.42,0l.48,0c.14,2.25.2,4.65.18,7.17-.4,0-.72-.07-1-.09l0-1.61a9.89,9.89,0,0,0-.11-2c-.05,0-.12.19-.23.6,0,.15-.1.42-.19.81-.21.89-.37,1.56-.5,2,0,.15-.17.23-.4.23Z"/><path d="M53.53,68.66H52.24a5.78,5.78,0,0,1-.37,1.58c0,.07-.23.1-.53.1s-.48,0-.51-.07a2.21,2.21,0,0,1,.11-.94c0-.13.16-.66.36-1.61s.41-1.86.61-2.74a12.35,12.35,0,0,1,.42-1.57c.07-.16.27-.23.6-.2a.64.64,0,0,1,.57.39A21,21,0,0,1,54.07,66c.2,1,.41,1.92.65,2.88s.28,1.38.19,1.46-.27.08-.58,0a.63.63,0,0,1-.41-.19,2,2,0,0,1-.22-.68l-.16-.81Zm-.2-1.07q0-.3-.48-2.16l-.21.94a6.09,6.09,0,0,0-.2,1.15c0,.11.17.16.44.16s.45,0,.45-.09Z"/><path d="M61.15,65.05a3.28,3.28,0,0,1-.07.87,1.17,1.17,0,0,1-.32.46l-.36.37a33.42,33.42,0,0,1,.94,3.37c0,.08-.14.13-.4.14a1,1,0,0,1-.58-.1,3.43,3.43,0,0,1-.38-1c-.36-1.38-.68-2.08-1-2.11s-.21.05-.23.2,0,.61-.07,1.42l0,1.64a2.16,2.16,0,0,0-.37,0h-.41a.44.44,0,0,1-.25,0s-.08-1.26-.12-3.65A15,15,0,0,1,57.62,63,5.07,5.07,0,0,1,59,63a5.55,5.55,0,0,1,1.33.2,1.33,1.33,0,0,1,.66.64,2.79,2.79,0,0,1,.2,1.18Zm-1.31-.9a1.65,1.65,0,0,0-1.08-.2,8.32,8.32,0,0,1-.07,1.84s0,.09.12.12a1.21,1.21,0,0,0,.38,0,1,1,0,0,0,.76-.32,1,1,0,0,0,.16-.83,1.16,1.16,0,0,0-.28-.66Z"/><path d="M67.88,70.24c0,.1-.17.16-.51.16a1,1,0,0,1-.48-.08.92.92,0,0,1-.23-.41c-.18-.43-.36-.86-.55-1.25a10.6,10.6,0,0,0-.48-1c-.13-.24-.23-.36-.26-.35a2.14,2.14,0,0,0-.11.64c0,.36-.05.84-.07,1.46s0,.92,0,1a9.15,9.15,0,0,1-1.15,0c0-.07-.05-1.23-.07-3.52s0-3.44,0-3.51.1-.12.23-.14a3.51,3.51,0,0,1,.55,0l.39,0c0,.28,0,.71.07,1.28s0,1,.07,1.3a24.39,24.39,0,0,1,1.32-2.42.91.91,0,0,1,.6-.22c.28,0,.46,0,.52.12s-.15.61-.64,1.51a4.83,4.83,0,0,0-.68,1.71,16.85,16.85,0,0,0,.76,1.84,18,18,0,0,1,.75,1.86Z"/><path d="M73.42,63.44V64H71.78l-.08.6a4.15,4.15,0,0,0-.07,1.12c.05.15.19.25.44.29a2.18,2.18,0,0,0,.71,0c.18,0,.26,0,.26.12a4.15,4.15,0,0,0,.08.52c0,.13,0,.22,0,.25a2.34,2.34,0,0,1-.62,0h-.73v2.36l1.68-.2v1a16.92,16.92,0,0,1-2.16.07,2.25,2.25,0,0,1-.58-.13c-.07,0-.12-.18-.15-.4q-.08-.6-.08-6.58l1.13,0,1.35-.07a.65.65,0,0,1,.42,0,.89.89,0,0,1,.06.45Z"/><path d="M80,63.72c0,.17,0,.28-.09.31a1.4,1.4,0,0,1-.56.06H78.7c0,.71,0,1.76,0,3.19s0,2.48,0,3.19c-.27,0-.64,0-1.1.08,0-1,0-2.47,0-4.53v-.51a3.25,3.25,0,0,0-.13-1.26c-.07-.08-.26-.13-.6-.13h-.28a.81.81,0,0,1-.41-.08S76,63.9,76,63.74s0-.41.1-.46a7.94,7.94,0,0,1,1.69-.09,11.28,11.28,0,0,1,1.92.08.42.42,0,0,1,.29.45Z"/><path d="M40.07,69.17c0-.11.25-.16.59-.15s.51.07.52.16a2.5,2.5,0,0,1,0,.82c0,.08-.2.13-.48.15a1.2,1.2,0,0,1-.49,0,.75.75,0,0,1-.14-.38A1.07,1.07,0,0,1,40.07,69.17Z"/><path d="M19.31,78.17h-1l-.06-1.88a18.38,18.38,0,0,1,0-3.66c.05-.07.19-.12.44-.15a3.55,3.55,0,0,1,1,0,2,2,0,0,1,.81.19,1.26,1.26,0,0,1,.65,1A1.47,1.47,0,0,1,21,74.83l-.21.26.27.31a1.89,1.89,0,0,1,.34,1.52,1.28,1.28,0,0,1-.53,1,3.27,3.27,0,0,1-1.54.25ZM19.24,74a4.07,4.07,0,0,0,0,.63.3.3,0,0,0,.16.2.73.73,0,0,0,.91-.34.75.75,0,0,0-.1-1,1,1,0,0,0-.43-.29.68.68,0,0,0-.44,0c-.09,0-.13.3-.13.8Zm.07,1.55a12.73,12.73,0,0,0-.07,1.9,2.28,2.28,0,0,0,.89-.08.7.7,0,0,0,.38-.55,1.49,1.49,0,0,0-.06-.64c-.08-.25-.16-.4-.27-.46a1.92,1.92,0,0,0-.51-.16c-.21,0-.33,0-.37,0Z"/><path d="M24.5,72.57a2,2,0,0,1,1,0,1.23,1.23,0,0,1,.78.47,5.53,5.53,0,0,1,.39,2.22,5.82,5.82,0,0,1-.15,2.23,1.53,1.53,0,0,1-1.9.76,1.3,1.3,0,0,1-.94-.85,6.85,6.85,0,0,1-.24-2.32,5.62,5.62,0,0,1,.2-1.82,1.26,1.26,0,0,1,.84-.7Zm1.09.92a.79.79,0,0,0-.5-.24.54.54,0,0,0-.54.17.78.78,0,0,0-.17.47c0,.21,0,.72,0,1.51s0,1.3,0,1.51a.55.55,0,0,0,.15.39.75.75,0,0,0,.88,0,.47.47,0,0,0,.22-.22,2,2,0,0,0,.1-.52,10.52,10.52,0,0,0,0-1.79,3.66,3.66,0,0,0-.17-1.29Z"/><path d="M31.7,74a2.62,2.62,0,0,1-.05.69.9.9,0,0,1-.26.37l-.29.3A24.68,24.68,0,0,1,31.85,78c0,.07-.1.11-.32.11a.82.82,0,0,1-.46-.07,2.63,2.63,0,0,1-.3-.79c-.29-1.1-.55-1.66-.77-1.68a.15.15,0,0,0-.18.15,11.2,11.2,0,0,0-.05,1.13l0,1.32h-.62a.51.51,0,0,1-.19,0s-.07-1-.11-2.93a12.22,12.22,0,0,1,.07-2.89,4.27,4.27,0,0,1,1.07,0,4.66,4.66,0,0,1,1.08.16,1,1,0,0,1,.52.51,2.15,2.15,0,0,1,.16.94Zm-1-.72a1.26,1.26,0,0,0-.86-.15,7.12,7.12,0,0,1-.06,1.47s0,.07.09.09a.9.9,0,0,0,.31,0,.74.74,0,0,0,.61-.25.79.79,0,0,0,.13-.66A1,1,0,0,0,30.66,73.27Z"/><path d="M33.92,72.6h.43a.9.9,0,0,1,.24,0,.26.26,0,0,1,.15,0s0,.06,0,.11a9.66,9.66,0,0,0,.67,1.53,8.76,8.76,0,0,0,.72,1.38c0-.12,0-1.14,0-3l.82-.07,0,5.7-.35,0a.45.45,0,0,1-.38-.15,13,13,0,0,1-.79-1.71,4.06,4.06,0,0,0-.62-1.21,7.51,7.51,0,0,0,0,1.64,12.76,12.76,0,0,1,0,1.3c0,.15-.09.22-.19.25a.38.38,0,0,1-.48-.32A24.47,24.47,0,0,1,34,75.4l-.07-2.8Z"/><path d="M45.05,78.3h-1L44,76.41a18.7,18.7,0,0,1,0-3.65c0-.07.19-.13.44-.16a4.42,4.42,0,0,1,1,0,2.33,2.33,0,0,1,.81.19,1.26,1.26,0,0,1,.64,1A1.45,1.45,0,0,1,46.71,75l-.2.26.27.31a1.88,1.88,0,0,1,.33,1.52,1.24,1.24,0,0,1-.52,1,3.15,3.15,0,0,1-1.54.26ZM45,74.12a4.14,4.14,0,0,0,0,.64.27.27,0,0,0,.16.2.73.73,0,0,0,.91-.34.75.75,0,0,0-.1-1,1,1,0,0,0-.43-.29.64.64,0,0,0-.45,0c-.08,0-.13.3-.13.8Zm.07,1.56a11.21,11.21,0,0,0-.07,1.9,2.28,2.28,0,0,0,.89-.08.67.67,0,0,0,.37-.55,1.23,1.23,0,0,0-.06-.64.77.77,0,0,0-.26-.46,2,2,0,0,0-.52-.16q-.3-.06-.36,0Z"/><path d="M52.11,74.12a3.21,3.21,0,0,1,0,.7,1.2,1.2,0,0,1-.26.37l-.29.29a23.85,23.85,0,0,1,.75,2.7c0,.06-.11.1-.33.11a.81.81,0,0,1-.46-.08,2.83,2.83,0,0,1-.29-.78c-.3-1.1-.55-1.67-.77-1.69a.15.15,0,0,0-.18.15c0,.12,0,.49-.06,1.14l0,1.31a1.4,1.4,0,0,0-.29,0h-.33a.43.43,0,0,1-.2,0s-.06-1-.1-2.92a11.52,11.52,0,0,1,.07-2.89,3.78,3.78,0,0,1,1.07,0,3.94,3.94,0,0,1,1.07.16,1,1,0,0,1,.53.5,2.22,2.22,0,0,1,.15,1Zm-1-.71c-.13-.13-.41-.18-.87-.16a6.56,6.56,0,0,1-.05,1.47s0,.08.09.1a1.24,1.24,0,0,0,.31,0,.74.74,0,0,0,.61-.25.78.78,0,0,0,.12-.67A.91.91,0,0,0,51.07,73.41Z"/><path d="M56.7,72.83v.42H55.38l-.07.47a3.53,3.53,0,0,0-.05.9.39.39,0,0,0,.35.24,1.91,1.91,0,0,0,.57,0c.13,0,.2,0,.2.11a2.35,2.35,0,0,0,.07.41c0,.11,0,.18,0,.2a2,2,0,0,1-.49,0h-.59v1.9l1.34-.16v.81a11.67,11.67,0,0,1-1.72.06,1.3,1.3,0,0,1-.46-.11c-.06,0-.09-.14-.12-.33s-.06-2.07-.06-5.26l.9,0,1.08-.06q.29,0,.33,0s0,.15,0,.36Z"/><path d="M61.77,75.31c0,.76,0,1.26,0,1.5a1.83,1.83,0,0,1-.2.69,1.09,1.09,0,0,1-.46.59,5.44,5.44,0,0,1-1.18.19,4.22,4.22,0,0,1-1.08.06s0-1,0-2.86,0-2.88,0-2.94.36-.05,1,0a4,4,0,0,1,1.19.2,1.23,1.23,0,0,1,.52.5,1.7,1.7,0,0,1,.18.59c0,.23,0,.72,0,1.48Zm-2,2.27a.92.92,0,0,0,1.11-.77,8.23,8.23,0,0,0,0-1.77,4.88,4.88,0,0,0-.2-1.5,1,1,0,0,0-.5-.19c-.24,0-.4,0-.46,0a40.34,40.34,0,0,0,0,4.19Z"/><path d="M41.32,75.21c0-.11,0-.17.06-.19s.14,0,.32,0h.39a3.73,3.73,0,0,1-.26.93.67.67,0,0,0-.1.41c0,.1.1.14.22.14s.11.12.11.34a.59.59,0,0,1,0,.28s-.07,0-.17,0a.67.67,0,0,1-.45-.17c-.16-.11-.26-.13-.29-.08s-.19.13-.49.2a1.17,1.17,0,0,1-.62.06,1.25,1.25,0,0,1-.52-.32,1,1,0,0,1-.27-.87,1.48,1.48,0,0,1,.44-.95l.17-.17-.2-.4a1.78,1.78,0,0,1-.18-1.06.83.83,0,0,1,.41-.71,1.89,1.89,0,0,1,.57-.07,1,1,0,0,1,.63.19c.42.37.38.94-.12,1.7-.18.28-.26.45-.23.51s.11.16.27.38.34.23.34-.18Zm-1.4.83a.36.36,0,0,0,.16.29.59.59,0,0,0,.37.14.37.37,0,0,0,.22,0s0-.08,0-.16A1.06,1.06,0,0,0,40.5,76a2.16,2.16,0,0,0-.32-.42s-.06,0-.1.06a.75.75,0,0,0-.11.22.8.8,0,0,0,0,.23Zm.54-2.79q-.21,0-.27.27a.93.93,0,0,0,.07.6l.08.23c.3-.43.39-.76.28-1s-.08-.13-.15-.13Z"/><path d="M39.66,77.83a14.64,14.64,0,0,1,2-.06c.05.33.07.51.07.56l-.91,0c-.61,0-1,0-1.1,0s-.09-.08-.1-.24a.34.34,0,0,1,0-.29Z"/></svg>